name rise30.3154peak39.0474fall46.5389.mot
datacolumns 19
datarows 55
range 0.000000 0.090003
endheader
time	ground_force1_vx	ground_force1_vy	ground_force1_vz	ground_force1_px	ground_force1_py	ground_force1_pz	ground_force2_vx	ground_force2_vy	ground_force2_vz	ground_force2_px	ground_force2_py	ground_force2_pz	ground_torque1_x	ground_torque1_y	ground_torque1_z	ground_torque2_x	ground_torque2_y	ground_torque2_z	
0.000000	0.000000	0.000000	0.000000	0.000000	0.000000	0.000000	44.261485	790.702431	-54.898172	0.275915	0.000000	-0.099272	0.000000	0.000000	0.000000	0.000000	-26.611661	0.000000	
0.001671	0.000000	0.000000	0.000000	0.000000	0.000000	0.000000	44.227339	789.613224	-54.891460	0.275986	0.000000	-0.099256	0.000000	0.000000	0.000000	0.000000	-26.461167	0.000000	
0.003334	0.000000	0.000000	0.000000	0.000000	0.000000	0.000000	44.193290	788.533269	-54.884664	0.276036	0.000000	-0.099239	0.000000	0.000000	0.000000	0.000000	-26.310846	0.000000	
0.005001	0.000000	0.000000	0.000000	0.000000	0.000000	0.000000	44.157048	787.456781	-54.876702	0.276064	0.000000	-0.099221	0.000000	0.000000	0.000000	0.000000	-26.160177	0.000000	
0.006667	0.000000	0.000000	0.000000	0.000000	0.000000	0.000000	44.116221	786.376502	-54.866466	0.276069	0.000000	-0.099202	0.000000	0.000000	0.000000	0.000000	-26.008449	0.000000	
0.008339	0.000000	0.000000	0.000000	0.000000	0.000000	0.000000	44.068439	785.284389	-54.852872	0.276049	0.000000	-0.099182	0.000000	0.000000	0.000000	0.000000	-25.854844	0.000000	
0.010005	0.000000	0.000000	0.000000	0.000000	0.000000	0.000000	44.011459	784.172262	-54.834909	0.276004	0.000000	-0.099161	0.000000	0.000000	0.000000	0.000000	-25.698516	0.000000	
0.011672	0.000000	0.000000	0.000000	0.000000	0.000000	0.000000	43.943249	783.032365	-54.811679	0.275932	0.000000	-0.099140	0.000000	0.000000	0.000000	0.000000	-25.538666	0.000000	
0.013356	0.000000	0.000000	0.000000	0.000000	0.000000	0.000000	43.862052	781.857821	-54.782417	0.275832	0.000000	-0.099117	0.000000	0.000000	0.000000	0.000000	-25.374590	0.000000	
0.015005	0.000000	0.000000	0.000000	0.000000	0.000000	0.000000	43.766417	780.642955	-54.746516	0.275704	0.000000	-0.099094	0.000000	0.000000	0.000000	0.000000	-25.205732	0.000000	
0.016670	0.000000	0.000000	0.000000	0.000000	0.000000	0.000000	43.655217	779.383484	-54.703519	0.275547	0.000000	-0.099070	0.000000	0.000000	0.000000	0.000000	-25.031699	0.000000	
0.018341	0.000000	0.000000	0.000000	0.000000	0.000000	0.000000	43.527636	778.076586	-54.653126	0.275358	0.000000	-0.099045	0.000000	0.000000	0.000000	0.000000	-24.852282	0.000000	
0.020005	0.000000	0.000000	0.000000	0.000000	0.000000	0.000000	43.383149	776.720864	-54.595170	0.275139	0.000000	-0.099020	0.000000	0.000000	0.000000	0.000000	-24.667445	0.000000	
0.021670	0.000000	0.000000	0.000000	0.000000	0.000000	0.000000	43.221482	775.316221	-54.529610	0.274888	0.000000	-0.098994	0.000000	0.000000	0.000000	0.000000	-24.477316	0.000000	
0.023341	0.000000	0.000000	0.000000	0.000000	0.000000	0.000000	43.042570	773.863680	-54.456499	0.274604	0.000000	-0.098967	0.000000	0.000000	0.000000	0.000000	-24.282167	0.000000	
0.025002	0.000000	0.000000	0.000000	0.000000	0.000000	0.000000	42.846510	772.365157	-54.375971	0.274287	0.000000	-0.098940	0.000000	0.000000	0.000000	0.000000	-24.082382	0.000000	
0.026672	0.000000	0.000000	0.000000	0.000000	0.000000	0.000000	42.633515	770.823233	-54.288214	0.273936	0.000000	-0.098912	0.000000	0.000000	0.000000	0.000000	-23.878434	0.000000	
0.028337	0.000000	0.000000	0.000000	0.000000	0.000000	0.000000	42.403876	769.240918	-54.193452	0.273551	0.000000	-0.098884	0.000000	0.000000	0.000000	0.000000	-23.670852	0.000000	
0.030003	0.000000	0.000000	0.000000	0.000000	0.000000	0.000000	42.157921	767.621450	-54.091931	0.273132	0.000000	-0.098855	0.000000	0.000000	0.000000	0.000000	-23.460199	0.000000	
0.031671	0.000000	0.000000	0.000000	0.000000	0.000000	0.000000	41.895996	765.968111	-53.983903	0.272678	0.000000	-0.098826	0.000000	0.000000	0.000000	0.000000	-23.247045	0.000000	
0.033338	0.000000	0.000000	0.000000	0.000000	0.000000	0.000000	41.618436	764.284093	-53.869615	0.272189	0.000000	-0.098796	0.000000	0.000000	0.000000	0.000000	-23.031952	0.000000	
0.035005	0.000000	0.000000	0.000000	0.000000	0.000000	0.000000	41.325561	762.572397	-53.749310	0.271665	0.000000	-0.098766	0.000000	0.000000	0.000000	0.000000	-22.815456	0.000000	
0.036673	0.000000	0.000000	0.000000	0.000000	0.000000	0.000000	41.017668	760.835776	-53.623219	0.271107	0.000000	-0.098736	0.000000	0.000000	0.000000	0.000000	-22.598062	0.000000	
0.038346	0.000000	0.000000	0.000000	0.000000	0.000000	0.000000	40.695032	759.076709	-53.491564	0.270513	0.000000	-0.098706	0.000000	0.000000	0.000000	0.000000	-22.380240	0.000000	
0.040001	0.000000	0.000000	0.000000	0.000000	0.000000	0.000000	40.357913	757.297409	-53.354557	0.269885	0.000000	-0.098675	0.000000	0.000000	0.000000	0.000000	-22.162418	0.000000	
0.041673	0.000000	0.000000	0.000000	0.000000	0.000000	0.000000	40.006566	755.499852	-53.212409	0.269223	0.000000	-0.098645	0.000000	0.000000	0.000000	0.000000	-21.944991	0.000000	
0.043345	0.000000	0.000000	0.000000	0.000000	0.000000	0.000000	39.641248	753.685821	-53.065329	0.268528	0.000000	-0.098614	0.000000	0.000000	0.000000	0.000000	-21.728323	0.000000	
0.045007	0.000000	0.000000	0.000000	0.000000	0.000000	0.000000	39.262233	751.856959	-52.913533	0.267798	0.000000	-0.098584	0.000000	0.000000	0.000000	0.000000	-21.512747	0.000000	
0.046673	0.000000	0.000000	0.000000	0.000000	0.000000	0.000000	38.869817	750.014828	-52.757243	0.267037	0.000000	-0.098553	0.000000	0.000000	0.000000	0.000000	-21.298579	0.000000	
0.048336	0.000000	0.000000	0.000000	0.000000	0.000000	0.000000	38.464333	748.160958	-52.596697	0.266243	0.000000	-0.098523	0.000000	0.000000	0.000000	0.000000	-21.086119	0.000000	
0.050000	0.000000	0.000000	0.000000	0.000000	0.000000	0.000000	38.046153	746.296899	-52.432144	0.265418	0.000000	-0.098492	0.000000	0.000000	0.000000	0.000000	-20.875656	0.000000	
0.051674	0.000000	0.000000	0.000000	0.000000	0.000000	0.000000	37.615695	744.424254	-52.263853	0.264562	0.000000	-0.098462	0.000000	0.000000	0.000000	0.000000	-20.667471	0.000000	
0.053338	0.000000	0.000000	0.000000	0.000000	0.000000	0.000000	37.173422	742.544706	-52.092106	0.263677	0.000000	-0.098432	0.000000	0.000000	0.000000	0.000000	-20.461843	0.000000	
0.055003	0.000000	0.000000	0.000000	0.000000	0.000000	0.000000	36.719844	740.660039	-51.917205	0.262764	0.000000	-0.098402	0.000000	0.000000	0.000000	0.000000	-20.259048	0.000000	
0.056665	0.000000	0.000000	0.000000	0.000000	0.000000	0.000000	36.255517	738.772137	-51.739462	0.261823	0.000000	-0.098373	0.000000	0.000000	0.000000	0.000000	-20.059361	0.000000	
0.058346	0.000000	0.000000	0.000000	0.000000	0.000000	0.000000	35.781036	736.882988	-51.559206	0.260857	0.000000	-0.098344	0.000000	0.000000	0.000000	0.000000	-19.863051	0.000000	
0.060006	0.000000	0.000000	0.000000	0.000000	0.000000	0.000000	35.297029	734.994666	-51.376771	0.259865	0.000000	-0.098315	0.000000	0.000000	0.000000	0.000000	-19.670386	0.000000	
0.061674	0.000000	0.000000	0.000000	0.000000	0.000000	0.000000	34.804156	733.109319	-51.192500	0.258850	0.000000	-0.098287	0.000000	0.000000	0.000000	0.000000	-19.481626	0.000000	
0.063344	0.000000	0.000000	0.000000	0.000000	0.000000	0.000000	34.303097	731.229153	-51.006740	0.257812	0.000000	-0.098259	0.000000	0.000000	0.000000	0.000000	-19.297022	0.000000	
0.065001	0.000000	0.000000	0.000000	0.000000	0.000000	0.000000	33.794547	729.356402	-50.819836	0.256753	0.000000	-0.098231	0.000000	0.000000	0.000000	0.000000	-19.116815	0.000000	
0.066665	0.000000	0.000000	0.000000	0.000000	0.000000	0.000000	33.279212	727.493319	-50.632132	0.255675	0.000000	-0.098204	0.000000	0.000000	0.000000	0.000000	-18.941230	0.000000	
0.068335	0.000000	0.000000	0.000000	0.000000	0.000000	0.000000	32.757799	725.642147	-50.443966	0.254579	0.000000	-0.098177	0.000000	0.000000	0.000000	0.000000	-18.770476	0.000000	
0.070000	0.000000	0.000000	0.000000	0.000000	0.000000	0.000000	32.231013	723.805108	-50.255668	0.253467	0.000000	-0.098151	0.000000	0.000000	0.000000	0.000000	-18.604745	0.000000	
0.071669	0.000000	0.000000	0.000000	0.000000	0.000000	0.000000	31.699550	721.984390	-50.067559	0.252339	0.000000	-0.098125	0.000000	0.000000	0.000000	0.000000	-18.444210	0.000000	
0.073337	0.000000	0.000000	0.000000	0.000000	0.000000	0.000000	31.164095	720.182132	-49.879948	0.251198	0.000000	-0.098100	0.000000	0.000000	0.000000	0.000000	-18.289021	0.000000	
0.075007	0.000000	0.000000	0.000000	0.000000	0.000000	0.000000	30.625317	718.400422	-49.693133	0.250044	0.000000	-0.098075	0.000000	0.000000	0.000000	0.000000	-18.139308	0.000000	
0.076665	0.000000	0.000000	0.000000	0.000000	0.000000	0.000000	30.083866	716.641291	-49.507397	0.248881	0.000000	-0.098050	0.000000	0.000000	0.000000	0.000000	-17.995181	0.000000	
0.078349	0.000000	0.000000	0.000000	0.000000	0.000000	0.000000	29.540369	714.906711	-49.323009	0.247708	0.000000	-0.098026	0.000000	0.000000	0.000000	0.000000	-17.856729	0.000000	
0.080004	0.000000	0.000000	0.000000	0.000000	0.000000	0.000000	28.995430	713.198597	-49.140226	0.246528	0.000000	-0.098003	0.000000	0.000000	0.000000	0.000000	-17.724018	0.000000	
0.081665	0.000000	0.000000	0.000000	0.000000	0.000000	0.000000	28.449627	711.518811	-48.959287	0.245341	0.000000	-0.097980	0.000000	0.000000	0.000000	0.000000	-17.597098	0.000000	
0.083352	0.000000	0.000000	0.000000	0.000000	0.000000	0.000000	27.903508	709.869159	-48.780420	0.244150	0.000000	-0.097957	0.000000	0.000000	0.000000	0.000000	-17.476000	0.000000	
0.085004	0.000000	0.000000	0.000000	0.000000	0.000000	0.000000	27.357594	708.251405	-48.603835	0.242956	0.000000	-0.097935	0.000000	0.000000	0.000000	0.000000	-17.360738	0.000000	
0.086669	0.000000	0.000000	0.000000	0.000000	0.000000	0.000000	26.812373	706.667265	-48.429731	0.241760	0.000000	-0.097913	0.000000	0.000000	0.000000	0.000000	-17.251309	0.000000	
0.088342	0.000000	0.000000	0.000000	0.000000	0.000000	0.000000	26.268298	705.118418	-48.258290	0.240563	0.000000	-0.097892	0.000000	0.000000	0.000000	0.000000	-17.147698	0.000000	
0.090003	0.000000	0.000000	0.000000	0.000000	0.000000	0.000000	25.725792	703.606504	-48.089683	0.239367	0.000000	-0.097871	0.000000	0.000000	0.000000	0.000000	-17.049877	0.000000	
